<svg width="275" height="125" xmlns="http://www.w3.org/2000/svg" shape-rendering="crispEdges">
  <rect x="0" y="0" width="25" height="25" fill="none" stroke="#dddddd" stroke-width="0.0" />
  <rect x="25" y="0" width="25" height="25" fill="none" stroke="#dddddd" stroke-width="0.0" />
  <rect x="50" y="0" width="25" height="25" fill="#458588" stroke="#dddddd" stroke-width="0.0" />
  <rect x="75" y="0" width="25" height="25" fill="none" stroke="#dddddd" stroke-width="0.0" />
  <rect x="100" y="0" width="25" height="25" fill="none" stroke="#dddddd" stroke-width="0.0" />
  <rect x="125" y="0" width="25" height="25" fill="none" stroke="#dddddd" stroke-width="0.0" />
  <rect x="150" y="0" width="25" height="25" fill="none" stroke="#dddddd" stroke-width="0.0" />
  <rect x="175" y="0" width="25" height="25" fill="none" stroke="#dddddd" stroke-width="0.0" />
  <rect x="200" y="0" width="25" height="25" fill="none" stroke="#dddddd" stroke-width="0.0" />
  <rect x="225" y="0" width="25" height="25" fill="none" stroke="#dddddd" stroke-width="0.0" />
  <rect x="250" y="0" width="25" height="25" fill="none" stroke="#dddddd" stroke-width="0.0" />
  <rect x="0" y="25" width="25" height="25" fill="none" stroke="#dddddd" stroke-width="0.0" />
  <rect x="25" y="25" width="25" height="25" fill="none" stroke="#dddddd" stroke-width="0.0" />
  <rect x="50" y="25" width="25" height="25" fill="#458588" stroke="#dddddd" stroke-width="0.0" />
  <rect x="75" y="25" width="25" height="25" fill="none" stroke="#dddddd" stroke-width="0.0" />
  <rect x="100" y="25" width="25" height="25" fill="none" stroke="#dddddd" stroke-width="0.0" />
  <rect x="125" y="25" width="25" height="25" fill="none" stroke="#dddddd" stroke-width="0.0" />
  <rect x="150" y="25" width="25" height="25" fill="none" stroke="#dddddd" stroke-width="0.0" />
  <rect x="175" y="25" width="25" height="25" fill="none" stroke="#dddddd" stroke-width="0.0" />
  <rect x="200" y="25" width="25" height="25" fill="none" stroke="#dddddd" stroke-width="0.0" />
  <rect x="225" y="25" width="25" height="25" fill="none" stroke="#dddddd" stroke-width="0.0" />
  <rect x="250" y="25" width="25" height="25" fill="none" stroke="#dddddd" stroke-width="0.0" />
  <rect x="0" y="50" width="25" height="25" fill="#458588" stroke="#dddddd" stroke-width="0.0" />
  <rect x="25" y="50" width="25" height="25" fill="#458588" stroke="#dddddd" stroke-width="0.0" />
  <rect x="50" y="50" width="25" height="25" fill="#458588" stroke="#dddddd" stroke-width="0.0" />
  <rect x="75" y="50" width="25" height="25" fill="none" stroke="#dddddd" stroke-width="0.0" />
  <rect x="100" y="50" width="25" height="25" fill="#458588" stroke="#dddddd" stroke-width="0.0" />
  <rect x="125" y="50" width="25" height="25" fill="none" stroke="#dddddd" stroke-width="0.0" />
  <rect x="150" y="50" width="25" height="25" fill="#458588" stroke="#dddddd" stroke-width="0.0" />
  <rect x="175" y="50" width="25" height="25" fill="#458588" stroke="#dddddd" stroke-width="0.0" />
  <rect x="200" y="50" width="25" height="25" fill="#458588" stroke="#dddddd" stroke-width="0.0" />
  <rect x="225" y="50" width="25" height="25" fill="#458588" stroke="#dddddd" stroke-width="0.0" />
  <rect x="250" y="50" width="25" height="25" fill="#458588" stroke="#dddddd" stroke-width="0.0" />
  <rect x="0" y="75" width="25" height="25" fill="#458588" stroke="#dddddd" stroke-width="0.0" />
  <rect x="25" y="75" width="25" height="25" fill="none" stroke="#dddddd" stroke-width="0.0" />
  <rect x="50" y="75" width="25" height="25" fill="#458588" stroke="#dddddd" stroke-width="0.0" />
  <rect x="75" y="75" width="25" height="25" fill="none" stroke="#dddddd" stroke-width="0.0" />
  <rect x="100" y="75" width="25" height="25" fill="#458588" stroke="#dddddd" stroke-width="0.0" />
  <rect x="125" y="75" width="25" height="25" fill="none" stroke="#dddddd" stroke-width="0.0" />
  <rect x="150" y="75" width="25" height="25" fill="#458588" stroke="#dddddd" stroke-width="0.0" />
  <rect x="175" y="75" width="25" height="25" fill="none" stroke="#dddddd" stroke-width="0.0" />
  <rect x="200" y="75" width="25" height="25" fill="#458588" stroke="#dddddd" stroke-width="0.0" />
  <rect x="225" y="75" width="25" height="25" fill="none" stroke="#dddddd" stroke-width="0.0" />
  <rect x="250" y="75" width="25" height="25" fill="#458588" stroke="#dddddd" stroke-width="0.0" />
  <rect x="0" y="100" width="25" height="25" fill="#458588" stroke="#dddddd" stroke-width="0.0" />
  <rect x="25" y="100" width="25" height="25" fill="#458588" stroke="#dddddd" stroke-width="0.0" />
  <rect x="50" y="100" width="25" height="25" fill="#458588" stroke="#dddddd" stroke-width="0.0" />
  <rect x="75" y="100" width="25" height="25" fill="#458588" stroke="#dddddd" stroke-width="0.0" />
  <rect x="100" y="100" width="25" height="25" fill="#458588" stroke="#dddddd" stroke-width="0.0" />
  <rect x="125" y="100" width="25" height="25" fill="#458588" stroke="#dddddd" stroke-width="0.0" />
  <rect x="150" y="100" width="25" height="25" fill="#458588" stroke="#dddddd" stroke-width="0.0" />
  <rect x="175" y="100" width="25" height="25" fill="none" stroke="#dddddd" stroke-width="0.0" />
  <rect x="200" y="100" width="25" height="25" fill="#458588" stroke="#dddddd" stroke-width="0.0" />
  <rect x="225" y="100" width="25" height="25" fill="none" stroke="#dddddd" stroke-width="0.0" />
  <rect x="250" y="100" width="25" height="25" fill="#458588" stroke="#dddddd" stroke-width="0.0" />
</svg>